<?xml version="1.0" encoding="utf-8"?>

<!-- The icon can be used freely in both personal and commercial projects with no attribution required, but always appreciated. 
You may NOT sub-license, resell, rent, redistribute or otherwise transfer the icon without express written permission from iconmonstr.com -->

<!DOCTYPE svg PUBLIC "-//W3C//DTD SVG 1.1//EN" "http://www.w3.org/Graphics/SVG/1.1/DTD/svg11.dtd">
<svg version="1.1" xmlns="http://www.w3.org/2000/svg" xmlns:xlink="http://www.w3.org/1999/xlink" x="0px" y="0px"
	 width="512px" height="512px" viewBox="0 0 512 512" enable-background="new 0 0 512 512" xml:space="preserve">
<path id="bug-track-icon" d="M354.304,204.139c-59.481,0-107.699,48.218-107.699,107.696c0,59.48,48.218,107.698,107.699,107.698
	c59.479,0,107.696-48.218,107.696-107.698C462,252.356,413.782,204.139,354.304,204.139z M369.315,388.037v-47.171h-30.026v47.171
	c-31.024-6.103-55.467-30.732-61.306-61.85h47.628v-30.026h-47.39c6.274-30.494,30.48-54.51,61.067-60.526v46.848h30.026v-46.849
	c30.587,6.017,54.793,30.033,61.067,60.527h-47.389v30.026h47.628C424.782,357.305,400.341,381.936,369.315,388.037z
	 M148.216,106.615c0-10.965,8.891-19.854,19.855-19.854c13.088,0,22.584,12.456,19.167,25.053
	c-1.285,4.743-0.594,9.804,1.916,14.027c5.565,9.366,15.047,15.133,27.44,15.198c12.223-0.064,21.829-5.754,27.44-15.198
	c2.51-4.224,3.201-9.284,1.916-14.027c-3.412-12.58,6.062-25.053,19.167-25.053c10.965,0,19.855,8.89,19.855,19.854
	c0,9.521-6.683,17.409-15.511,19.381c-4.469,0.999-8.327,3.796-10.667,7.732c-9.019,15.18,4.073,28.523,14.719,42.074
	c-32.527,17.015-81.312,17.015-113.84,0c10.812-13.761,23.805-26.781,14.719-42.074c-2.34-3.937-6.197-6.733-10.667-7.732
	C154.897,124.024,148.216,116.136,148.216,106.615z M259.36,411.479c-12.29,6.921-26.585,11.93-42.766,13.761
	c-41.522-4.699-70.678-30.271-85.18-55.606c-2.951-5.151-8.243-5.58-12.506-3.651l-35.545,16.08
	c-7.352,3.326-16.027,0.07-19.359-7.299c-3.33-7.362-0.062-16.029,7.3-19.359l33.6-15.2c7.262-3.287,11.99-10.35,10.423-20.615
	c-1.467-9.653-9.606-14.898-17.554-14.898H64.63c-8.08,0-14.63-6.55-14.63-14.63s6.55-14.63,14.63-14.63H97.98
	c7.673,0,15.675-4.975,17.151-15.664c1.132-8.177-3.843-15.251-10.729-17.967l-30.98-12.219c-7.518-2.963-11.207-11.46-8.243-18.978
	c2.964-7.516,11.46-11.206,18.977-8.242l31.856,12.563c4.095,1.614,9.918,1.08,13.071-6.171c3.058-7.03,6.51-13.604,10.322-19.583
	c28.45,12.812,52.822,19.214,77.19,19.214c21.709,0,43.424-5.097,68.009-15.258c-40.656,23.963-67.999,68.199-67.999,118.71
	C216.606,350.992,233.034,386.383,259.36,411.479z"/>
</svg>
