<?xml version="1.0" encoding="utf-8"?>


<!-- The icon can be used freely in both personal and commercial projects with no attribution required, but always appreciated. 
You may NOT sub-license, resell, rent, redistribute or otherwise transfer the icon without express written permission from iconmonstr.com -->


<!DOCTYPE svg PUBLIC "-//W3C//DTD SVG 1.1//EN" "http://www.w3.org/Graphics/SVG/1.1/DTD/svg11.dtd">

<svg version="1.1" xmlns="http://www.w3.org/2000/svg" xmlns:xlink="http://www.w3.org/1999/xlink" x="0px" y="0px"

	 width="512px" height="512px" viewBox="0 0 512 512" enable-background="new 0 0 512 512" xml:space="preserve">

<path id="video-file-icon" d="M323.723,350.223h-16.666V335.89h16.666V350.223z M323.723,360.89h-16.666v14.333h16.666V360.89z

	 M292.056,260.89H224.39v50h67.666V260.89z M323.723,310.771h-16.666v14.333h16.666V310.771z M323.723,285.89h-16.666v14.333h16.666

	V285.89z M322.806,50.302v100.493h100.492L322.806,50.302z M323.723,260.89h-16.666v14.333h16.666V260.89z M209.389,260.89h-16.666

	v14.333h16.666V260.89z M209.389,360.89h-16.666v14.333h16.666V360.89z M209.389,335.89h-16.666v14.333h16.666V335.89z

	 M292.056,325.223H224.39v50h67.666V325.223z M209.389,310.771h-16.666v14.333h16.666V310.771z M423.683,185.781V462H88.317V50

	h199.502v135.781H423.683z M338.056,245.562h-161v144.75h161V245.562z M209.389,285.89h-16.666v14.333h16.666V285.89z"/>

</svg>

